<svg version="1" xmlns="http://www.w3.org/2000/svg" width="666.667" height="666.667" viewBox="0 0 500.000000 500.000000"><path d="M0 250v250h500V0H0v250zm135.4-122.5c44.5 5.8 67.9 28.9 67.9 67 .1 17.1-4.1 32.1-12.1 43.7-7.8 11.3-22.7 22.6-36.2 27.4-4.1 1.5-7.9 3-8.3 3.4-.7.6 66.6 96.3 71 101 1.2 1.3 1.3-10.4 1.1-82.8l-.3-84.2 17.5.2 17.5.3 1.9 7.6 1.8 7.7 5.5-3.8c12.1-8.5 30.1-14 45.7-14 16.3 0 28.6 4.2 37.9 12.9l4.8 4.5 2.7-1.8c5.4-3.5 22.9-11.5 28.7-13.1 8.1-2.2 31.5-3.1 39.8-1.5 13.5 2.6 25.8 11.3 31.3 22.2 1.4 2.7 3.4 8.4 4.5 12.6 1.8 7.1 1.9 11.5 1.9 72.9V375h-41v-55.8c0-30.6-.5-59-1-62.9-2.4-18.4-12-25.4-33.1-24-10.3.7-25.6 5.4-25.1 7.8 1.7 6.9 2.2 21.6 2.2 74.1V375h-42v-59.8c0-65.2-.2-67.8-5.7-75-4.5-6-10-7.7-23.8-7.6-10.6 0-12.8.3-19 2.8-3.8 1.5-8 3.4-9.2 4.2L260 241v134h-44.2l-44.3-.1-32-49.1c-17.6-27.1-32.7-49.9-33.5-50.9-1.2-1.3-3.7-1.8-11.2-2.2l-9.8-.4v43.1c0 23.7-.3 46.8-.7 51.3l-.6 8.3H41V126h41.4c31.3 0 44.3.4 53 1.5z"/><path d="M85 198.8v41.1l4.7.7c7 1 30-.3 36.8-2.1 14-3.9 24.5-12.1 29.8-23.3 3.1-6.4 3.2-7.2 3.2-19.2 0-10.9-.3-13.1-2.3-17.5-6.7-14.6-18.3-19.1-52.4-20.2l-19.8-.6v41.1z"/></svg>
